<svg width="29" height="28" viewBox="0 0 29 28" fill="none" xmlns="http://www.w3.org/2000/svg">
<path d="M8.73336 22.4C7.18639 22.4 5.94739 23.6529 5.94739 25.2C5.94739 26.747 7.18639 28 8.73336 28C10.2803 28 11.5334 26.747 11.5334 25.2C11.5334 23.6529 10.2803 22.4 8.73336 22.4Z" fill="#456ED6"/>
<path d="M10.2734 15.4H20.7034C21.7534 15.4 22.6703 14.819 23.1533 13.958L28.1584 4.872C28.2704 4.67598 28.3334 4.44498 28.3334 4.2C28.3334 3.423 27.7034 2.80002 26.9334 2.80002H6.23437L4.90435 0H0.333374V2.80002H3.13339L8.16637 13.419L6.27637 16.849C6.05935 17.255 5.93335 17.71 5.93335 18.2C5.93335 19.747 7.18639 21 8.73337 21H25.5334V18.2H9.32839C9.13237 18.2 8.97841 18.0459 8.97841 17.85C8.97841 17.787 8.99239 17.731 9.02041 17.682L10.2734 15.4Z" fill="#456ED6"/>
<path d="M22.7333 22.4C21.1864 22.4 19.9474 23.6529 19.9474 25.2C19.9474 26.747 21.1864 28 22.7333 28C24.2804 28 25.5334 26.747 25.5334 25.2C25.5334 23.653 24.2804 22.4 22.7333 22.4Z" fill="#456ED6"/>
</svg>
