<svg width="24" height="28" viewBox="0 0 24 28" fill="none" xmlns="http://www.w3.org/2000/svg">
<path d="M22.6088 19.7318C20.8448 18.2408 19.8333 16.0615 19.8333 13.7527V10.5C19.8333 6.3945 16.7837 2.996 12.8333 2.42667V1.16667C12.8333 0.5215 12.3107 0 11.6667 0C11.0227 0 10.5 0.5215 10.5 1.16667V2.42667C6.5485 2.996 3.5 6.3945 3.5 10.5V13.7527C3.5 16.0615 2.4885 18.2408 0.714 19.7412C0.260167 20.1297 0 20.6943 0 21.2917C0 22.4175 0.915833 23.3333 2.04167 23.3333H21.2917C22.4175 23.3333 23.3333 22.4175 23.3333 21.2917C23.3333 20.6943 23.0732 20.1297 22.6088 19.7318Z" fill="#456ED6"/>
<path d="M11.6667 28C13.7795 28 15.547 26.4938 15.953 24.5H7.38034C7.78634 26.4938 9.55384 28 11.6667 28Z" fill="#456ED6"/>
</svg>
