<svg width="22" height="22" viewBox="0 0 22 22" fill="none" xmlns="http://www.w3.org/2000/svg">
<g id="Group 361">
<path id="Vector" d="M4.87576 13.2949L4.10998 16.1536L1.31105 16.2129C0.474581 14.6614 0.00012207 12.8863 0.00012207 11C0.00012207 9.17594 0.443729 7.45582 1.23005 5.94122H1.23066L3.72249 6.39806L4.81406 8.87494C4.5856 9.541 4.46107 10.256 4.46107 11C4.46116 11.8075 4.60742 12.5811 4.87576 13.2949Z" fill="#FBBB00"/>
<path id="Vector_2" d="M21.8077 8.9451C21.9341 9.61051 21.9999 10.2977 21.9999 11C21.9999 11.7876 21.9171 12.5557 21.7594 13.2967C21.2239 15.8183 19.8247 18.0201 17.8865 19.5782L17.8859 19.5776L14.7473 19.4174L14.3031 16.6445C15.5892 15.8902 16.5943 14.7098 17.1238 13.2967H11.2418V8.9451H17.2096H21.8077Z" fill="#518EF8"/>
<path id="Vector_3" d="M17.8858 19.5776L17.8864 19.5782C16.0013 21.0934 13.6067 22 10.9999 22C6.81089 22 3.16883 19.6586 1.31091 16.213L4.87563 13.295C5.80456 15.7742 8.19615 17.539 10.9999 17.539C12.2051 17.539 13.3341 17.2132 14.3029 16.6445L17.8858 19.5776Z" fill="#28B446"/>
<path id="Vector_4" d="M18.0212 2.53248L14.4577 5.44987C13.455 4.82313 12.2698 4.46108 11 4.46108C8.13275 4.46108 5.69643 6.30688 4.81403 8.87498L1.23058 5.94126H1.22998C3.0607 2.41161 6.74869 8.39233e-05 11 8.39233e-05C13.669 8.39233e-05 16.1162 0.950806 18.0212 2.53248Z" fill="#F14336"/>
</g>
</svg>
