<svg width="115" height="115" viewBox="0 0 115 115" fill="none" xmlns="http://www.w3.org/2000/svg">
<rect opacity="0.1" width="115" height="115" rx="30" fill="#456ED6"/>
<path d="M75.0576 69.3056C75.5871 69.8351 76.4455 69.835 76.9749 69.3056L82.0879 64.1927C82.6173 63.6632 82.6173 62.8048 82.0879 62.2754L60.997 41.1845L56.2037 45.9779C55.6742 46.5074 54.8158 46.5073 54.2864 45.9779C53.757 45.4485 53.757 44.59 54.2864 44.0606L59.0797 39.2672L50.7712 30.9587C50.2418 30.4293 49.3833 30.4292 48.8538 30.9587L43.7409 36.0716C43.2115 36.601 43.2115 37.4595 43.7409 37.9889C45.3268 39.5747 45.3268 42.1551 43.7409 43.741C42.155 45.3269 39.5747 45.3269 37.9888 43.741C37.4594 43.2116 36.601 43.2115 36.0715 43.741L30.9586 48.8539C30.4291 49.3834 30.4292 50.2418 30.9586 50.7712L39.2671 59.0797L44.0605 54.2863C44.59 53.7569 45.4484 53.7569 45.9778 54.2863C46.5072 54.8157 46.5072 55.6743 45.9778 56.2037L41.1844 60.997L62.2753 82.0878C62.8047 82.6173 63.6632 82.6172 64.1926 82.0878L69.3055 76.9749C69.835 76.4454 69.8349 75.587 69.3055 75.0576C67.7197 73.4718 67.7196 70.8914 69.3055 69.3055C70.8914 67.7196 73.4717 67.7197 75.0576 69.3056ZM49.8126 52.369C49.2831 52.8985 48.4247 52.8984 47.8952 52.369C47.3658 51.8396 47.3658 50.9811 47.8953 50.4517L50.4517 47.8952C50.9812 47.3657 51.8396 47.3658 52.3691 47.8952C52.8985 48.4246 52.8985 49.2831 52.3691 49.8125L49.8126 52.369Z" fill="#456ED6"/>
</svg>
