<svg width="33" height="33" viewBox="0 0 33 33" fill="none" xmlns="http://www.w3.org/2000/svg">
<path d="M28.1649 24.681C28.4856 25.0017 29.0055 25.0017 29.3262 24.681L32.423 21.5843C32.7437 21.2636 32.7436 20.7436 32.423 20.423L19.6487 7.64877L16.7455 10.552C16.4248 10.8727 15.9049 10.8726 15.5842 10.552C15.2636 10.2313 15.2636 9.71137 15.5842 9.39072L18.4875 6.48749L13.4552 1.45522C13.1345 1.13453 12.6146 1.13449 12.2939 1.45518L9.1971 4.55195C8.87641 4.87264 8.87645 5.39258 9.1971 5.71323C10.1576 6.67373 10.1576 8.2366 9.1971 9.19714C8.23656 10.1577 6.67373 10.1577 5.71319 9.19714C5.39254 8.87649 4.87261 8.87645 4.55192 9.19714L1.45514 12.2939C1.13445 12.6146 1.13449 13.1345 1.45514 13.4552L6.48742 18.4875L9.39064 15.5842C9.71133 15.2635 10.2313 15.2636 10.5519 15.5842C10.8726 15.9049 10.8726 16.4249 10.5519 16.7455L7.64869 19.6487L20.4229 32.423C20.7436 32.7437 21.2635 32.7436 21.5842 32.423L24.681 29.3262C25.0017 29.0055 25.0016 28.4856 24.681 28.1649C23.7205 27.2044 23.7204 25.6415 24.681 24.681C25.6415 23.7205 27.2044 23.7205 28.1649 24.681ZM12.8746 14.423C12.5539 14.7436 12.0339 14.7436 11.7133 14.423C11.3926 14.1023 11.3926 13.5823 11.7133 13.2617L13.2617 11.7133C13.5824 11.3926 14.1023 11.3926 14.423 11.7133C14.7436 12.0339 14.7436 12.5539 14.423 12.8745L12.8746 14.423Z" fill="#456ED6"/>
</svg>
