<svg width="88" height="88" viewBox="0 0 88 88" fill="none" xmlns="http://www.w3.org/2000/svg">
<rect width="88" height="88" rx="44" fill="white"/>
<path d="M33.2486 68.6901C33.8755 68.997 34.6123 68.8222 35.0367 68.2937L58.3998 38.9925C58.7506 38.5532 58.8176 37.9529 58.5752 37.4467C58.3314 36.9419 57.8209 36.6197 57.259 36.6197H47.9402L55.6448 21.1133C55.8715 20.6612 55.8473 20.1237 55.5807 19.693C55.314 19.2623 54.8449 19 54.3387 19H36.8164C36.1462 19 35.563 19.4564 35.4004 20.1065L29.5596 43.567C29.4498 44.0033 29.5482 44.4654 29.8249 44.8189C30.1015 45.174 30.5265 45.3807 30.9756 45.3807H37.8659L32.48 67.0273C32.3132 67.6933 32.6325 68.385 33.2486 68.6901Z" fill="#FFC540"/>
</svg>
