<svg width="94" height="26" viewBox="0 0 94 26" fill="none" xmlns="http://www.w3.org/2000/svg">
<path d="M6.44 19.168C5.272 19.168 4.216 18.968 3.272 18.568C2.344 18.168 1.608 17.592 1.064 16.84C0.52 16.088 0.24 15.2 0.224 14.176H3.824C3.872 14.864 4.112 15.408 4.544 15.808C4.992 16.208 5.6 16.408 6.368 16.408C7.152 16.408 7.768 16.224 8.216 15.856C8.664 15.472 8.888 14.976 8.888 14.368C8.888 13.872 8.736 13.464 8.432 13.144C8.128 12.824 7.744 12.576 7.28 12.4C6.832 12.208 6.208 12 5.408 11.776C4.32 11.456 3.432 11.144 2.744 10.84C2.072 10.52 1.488 10.048 0.992 9.424C0.512 8.784 0.272 7.936 0.272 6.88C0.272 5.888 0.52 5.024 1.016 4.288C1.512 3.552 2.208 2.992 3.104 2.608C4 2.208 5.024 2.008 6.176 2.008C7.904 2.008 9.304 2.432 10.376 3.28C11.464 4.112 12.064 5.28 12.176 6.784H8.48C8.448 6.208 8.2 5.736 7.736 5.368C7.288 4.984 6.688 4.792 5.936 4.792C5.28 4.792 4.752 4.96 4.352 5.296C3.968 5.632 3.776 6.12 3.776 6.76C3.776 7.208 3.92 7.584 4.208 7.888C4.512 8.176 4.88 8.416 5.312 8.608C5.76 8.784 6.384 8.992 7.184 9.232C8.272 9.552 9.16 9.872 9.848 10.192C10.536 10.512 11.128 10.992 11.624 11.632C12.12 12.272 12.368 13.112 12.368 14.152C12.368 15.048 12.136 15.88 11.672 16.648C11.208 17.416 10.528 18.032 9.632 18.496C8.736 18.944 7.672 19.168 6.44 19.168ZM22.769 5.512C23.777 5.512 24.673 5.736 25.457 6.184C26.241 6.616 26.849 7.264 27.281 8.128C27.729 8.976 27.953 10 27.953 11.2V19H24.593V11.656C24.593 10.6 24.329 9.792 23.801 9.232C23.273 8.656 22.553 8.368 21.641 8.368C20.713 8.368 19.977 8.656 19.433 9.232C18.905 9.792 18.641 10.6 18.641 11.656V19H15.281V1.24H18.641V7.36C19.073 6.784 19.649 6.336 20.369 6.016C21.089 5.68 21.889 5.512 22.769 5.512ZM37.0522 19.216C35.7722 19.216 34.6202 18.936 33.5962 18.376C32.5722 17.8 31.7642 16.992 31.1722 15.952C30.5962 14.912 30.3082 13.712 30.3082 12.352C30.3082 10.992 30.6042 9.792 31.1962 8.752C31.8042 7.712 32.6282 6.912 33.6682 6.352C34.7082 5.776 35.8682 5.488 37.1482 5.488C38.4282 5.488 39.5882 5.776 40.6282 6.352C41.6682 6.912 42.4842 7.712 43.0762 8.752C43.6842 9.792 43.9882 10.992 43.9882 12.352C43.9882 13.712 43.6762 14.912 43.0522 15.952C42.4442 16.992 41.6122 17.8 40.5562 18.376C39.5162 18.936 38.3482 19.216 37.0522 19.216ZM37.0522 16.288C37.6602 16.288 38.2282 16.144 38.7562 15.856C39.3002 15.552 39.7322 15.104 40.0522 14.512C40.3722 13.92 40.5322 13.2 40.5322 12.352C40.5322 11.088 40.1962 10.12 39.5242 9.448C38.8682 8.76 38.0602 8.416 37.1002 8.416C36.1402 8.416 35.3322 8.76 34.6762 9.448C34.0362 10.12 33.7162 11.088 33.7162 12.352C33.7162 13.616 34.0282 14.592 34.6522 15.28C35.2922 15.952 36.0922 16.288 37.0522 16.288ZM49.8129 7.624C50.2449 7.016 50.8369 6.512 51.5889 6.112C52.3569 5.696 53.2289 5.488 54.2049 5.488C55.3409 5.488 56.3649 5.768 57.2769 6.328C58.2049 6.888 58.9329 7.688 59.4609 8.728C60.0049 9.752 60.2769 10.944 60.2769 12.304C60.2769 13.664 60.0049 14.872 59.4609 15.928C58.9329 16.968 58.2049 17.776 57.2769 18.352C56.3649 18.928 55.3409 19.216 54.2049 19.216C53.2289 19.216 52.3649 19.016 51.6129 18.616C50.8769 18.216 50.2769 17.712 49.8129 17.104V25.336H46.4529V5.704H49.8129V7.624ZM56.8449 12.304C56.8449 11.504 56.6769 10.816 56.3409 10.24C56.0209 9.648 55.5889 9.2 55.0449 8.896C54.5169 8.592 53.9409 8.44 53.3169 8.44C52.7089 8.44 52.1329 8.6 51.5889 8.92C51.0609 9.224 50.6289 9.672 50.2929 10.264C49.9729 10.856 49.8129 11.552 49.8129 12.352C49.8129 13.152 49.9729 13.848 50.2929 14.44C50.6289 15.032 51.0609 15.488 51.5889 15.808C52.1329 16.112 52.7089 16.264 53.3169 16.264C53.9409 16.264 54.5169 16.104 55.0449 15.784C55.5889 15.464 56.0209 15.008 56.3409 14.416C56.6769 13.824 56.8449 13.12 56.8449 12.304ZM64.4225 4.12C63.8305 4.12 63.3345 3.936 62.9345 3.568C62.5505 3.184 62.3585 2.712 62.3585 2.152C62.3585 1.592 62.5505 1.128 62.9345 0.759999C63.3345 0.375999 63.8305 0.183999 64.4225 0.183999C65.0145 0.183999 65.5025 0.375999 65.8865 0.759999C66.2865 1.128 66.4865 1.592 66.4865 2.152C66.4865 2.712 66.2865 3.184 65.8865 3.568C65.5025 3.936 65.0145 4.12 64.4225 4.12ZM66.0785 5.704V19H62.7185V5.704H66.0785ZM72.4702 16.24H78.3982V19H68.6542V16.288L74.4622 8.464H68.6782V5.704H78.3262V8.416L72.4702 16.24ZM93.7198 5.704L85.4878 25.288H81.9118L84.7918 18.664L79.4638 5.704H83.2318L86.6638 14.992L90.1438 5.704H93.7198Z" fill="#456ED6"/>
</svg>
